<?xml version="1.0" standalone="no"?>
<!DOCTYPE svg PUBLIC "-//W3C//DTD SVG 20010904//EN"
 "http://www.w3.org/TR/2001/REC-SVG-20010904/DTD/svg10.dtd">
<svg version="1.0" xmlns="http://www.w3.org/2000/svg"
 width="300.000000pt" height="300.000000pt" viewBox="0 0 300.000000 300.000000"
 preserveAspectRatio="xMidYMid meet">
<metadata>
Created by potrace 1.10, written by Peter Selinger 2001-2011
</metadata>
<g transform="translate(0.000000,300.000000) scale(0.100000,-0.100000)"
fill="#000000" stroke="none">
<path d="M987 2424 c3 -9 21 -83 38 -163 l32 -146 171 -3 172 -2 0 -215 c0
-118 0 -218 0 -222 0 -5 -31 -11 -69 -14 -176 -17 -337 -111 -414 -242 -55
-93 -67 -174 -67 -438 l0 -238 95 -3 95 -3 0 210 c0 234 12 318 56 392 44 76
144 134 254 147 l55 7 -3 -376 -2 -375 100 0 100 0 -2 375 -3 376 55 -7 c115
-14 208 -68 255 -149 43 -72 55 -158 55 -387 l0 -208 96 0 96 0 -4 268 c-4
245 -6 272 -26 327 -69 188 -231 303 -455 324 l-68 6 1 302 1 303 -42 -3 -42
-2 2 -77 2 -78 -60 0 -61 0 0 78 0 78 -89 -4 -89 -4 -19 43 c-41 93 -102 139
-182 139 -33 0 -39 -3 -34 -16z m117 -55 c15 -12 41 -45 57 -74 35 -62 43 -67
129 -74 64 -6 65 -6 65 -36 l0 -30 -127 -3 c-113 -2 -128 -1 -136 15 -9 17
-52 194 -52 214 0 16 37 10 64 -12z m456 -497 c0 -198 1 -203 23 -226 17 -17
39 -25 87 -30 235 -24 394 -160 430 -366 6 -38 10 -149 8 -265 l-3 -200 -50 0
-50 0 -6 215 c-4 122 -12 232 -19 255 -45 148 -147 237 -299 265 -58 10 -67
10 -90 -8 l-26 -19 -6 -234 c-4 -129 -7 -289 -8 -356 l-1 -123 -50 0 c-27 0
-51 1 -52 3 -1 1 -5 161 -8 356 l-5 354 -27 20 c-25 19 -29 19 -97 4 -154 -35
-243 -112 -287 -248 -13 -41 -18 -106 -23 -269 l-6 -215 -50 0 -50 0 -3 205
c-3 225 5 293 46 380 31 66 108 145 179 183 57 30 188 67 240 67 23 0 42 8 58
25 25 24 25 26 25 213 0 202 2 212 51 212 15 0 32 7 39 15 25 30 30 -7 30
-213z"/>
<path d="M1130 510 c0 -47 3 -60 15 -60 9 0 15 9 15 25 0 21 5 25 29 25 23 0
30 -5 33 -22 6 -45 22 -22 24 35 1 43 -2 57 -12 57 -8 0 -14 -10 -14 -25 0
-21 -5 -25 -30 -25 -25 0 -30 4 -30 25 0 16 -6 25 -15 25 -12 0 -15 -13 -15
-60z"/>
<path d="M1267 563 c-10 -9 -9 -103 1 -103 4 -1 28 -2 55 -4 35 -3 47 0 47 10
0 10 -13 14 -45 14 -25 0 -45 5 -45 10 0 6 20 10 45 10 25 0 45 5 45 10 0 6
-20 10 -45 10 -33 0 -45 4 -45 15 0 11 12 15 45 15 25 0 45 5 45 10 0 11 -93
14 -103 3z"/>
<path d="M1380 520 c0 -56 15 -70 74 -70 25 0 36 4 36 15 0 11 -12 15 -46 15
l-47 0 5 45 c4 34 2 45 -8 45 -10 0 -14 -14 -14 -50z"/>
<path d="M1503 558 c2 -7 14 -12 26 -11 18 2 21 -2 21 -31 0 -27 -4 -35 -20
-38 -42 -6 -18 -23 35 -23 39 -1 55 2 55 12 0 7 -11 13 -26 13 -23 0 -25 3
-22 33 2 24 8 33 26 35 46 7 20 22 -39 22 -44 0 -59 -3 -56 -12z"/>
<path d="M1630 510 c0 -33 4 -60 10 -60 6 0 10 19 10 42 l0 42 38 -37 c21 -20
41 -37 45 -37 4 0 7 25 7 55 0 30 -4 55 -10 55 -5 0 -10 -17 -10 -37 l0 -37
-38 37 c-21 20 -41 37 -45 37 -4 0 -7 -27 -7 -60z"/>
<path d="M1758 558 c-8 -26 -3 -98 7 -98 6 1 10 10 9 20 0 16 6 20 33 20 29 0
33 -3 33 -26 0 -38 24 -24 28 16 2 18 1 43 -2 56 -6 21 -12 24 -55 24 -30 0
-50 -5 -53 -12z m82 -23 c0 -16 -55 -22 -64 -6 -8 13 5 21 36 21 18 0 28 -5
28 -15z"/>
<path d="M1077 524 c-15 -8 -25 -19 -22 -23 8 -13 65 -31 65 -21 0 5 -10 12
-22 16 l-21 6 24 19 c29 22 15 24 -24 3z"/>
<path d="M1899 521 l24 -19 -21 -6 c-12 -4 -22 -11 -22 -16 0 -10 57 8 65 21
3 4 -8 15 -24 24 -41 20 -51 19 -22 -4z"/>
</g>
</svg>
